<svg width="48" height="48" viewBox="0 0 48 48" fill="none" xmlns="http://www.w3.org/2000/svg">
<path d="M28.4819 19.3937L26.9472 29.5602H23.9219L25.9995 18.3555H30.9833L33.0514 29.5602H30.038L28.545 19.3937H28.4819Z" fill="#7E7E7E"/>
<path d="M19.2029 26.3996C19.3124 26.6711 19.2791 27.0199 19.2279 27.2307C19.1338 27.6033 18.8814 27.9831 18.1361 27.9831C17.4337 27.9831 17.0074 27.5807 17.0074 26.9652V25.8805H14.0024L14 26.7485C14 29.2464 15.9669 30 18.0742 30C20.1006 30 21.7698 29.3071 22.0353 27.4402C22.171 26.4723 22.0698 25.8389 22.0234 25.5996C21.5507 23.2541 17.2979 22.554 16.9812 21.242C16.9277 21.017 16.9431 20.7788 16.9693 20.6515C17.0467 20.2943 17.292 19.9002 17.9933 19.9002C18.6481 19.9002 19.035 20.305 19.035 20.917C19.035 21.1229 19.035 21.6087 19.035 21.6087H21.8293V20.8217C21.8293 18.381 19.6387 18 18.0516 18C16.0585 18 14.4298 18.6584 14.1322 20.4824C14.0512 20.986 14.0393 21.4349 14.1572 21.9968C14.6465 24.2863 18.6267 24.9495 19.2029 26.3996Z" fill="#7E7E7E"/>
</svg>
