<svg width="48" height="48" viewBox="0 0 48 48" fill="none" xmlns="http://www.w3.org/2000/svg">
<path d="M31.4571 20.8187C31.336 20.9087 29.1976 22.0628 29.1976 24.6291C29.1976 27.5974 31.9186 28.6475 32 28.6735C31.9875 28.7375 31.5677 30.1116 30.5654 31.5118C29.6717 32.7439 28.7382 33.974 27.3183 33.974C25.8983 33.974 25.5329 33.1839 23.8936 33.1839C22.2962 33.1839 21.7282 34 20.4293 34C19.1305 34 18.2242 32.8599 17.1822 31.4597C15.9752 29.8156 15 27.2613 15 24.8371C15 20.9487 17.6395 18.8865 20.2372 18.8865C21.6175 18.8865 22.7681 19.7546 23.6347 19.7546C24.4595 19.7546 25.7459 18.8345 27.3162 18.8345C27.9113 18.8345 30.0496 18.8865 31.4571 20.8187ZM26.5707 17.1883C27.2201 16.4502 27.6795 15.4261 27.6795 14.402C27.6795 14.26 27.667 14.116 27.6398 14C26.5832 14.038 25.3261 14.6741 24.5681 15.5162C23.973 16.1642 23.4175 17.1883 23.4175 18.2264C23.4175 18.3824 23.4447 18.5385 23.4572 18.5885C23.524 18.6005 23.6326 18.6145 23.7412 18.6145C24.6892 18.6145 25.8816 18.0064 26.5707 17.1883Z" fill="#7E7E7E"/>
</svg>
