<svg width="48" height="48" viewBox="0 0 48 48" fill="none" xmlns="http://www.w3.org/2000/svg">
<path d="M22.5398 16C22.2725 16.0251 21.5505 16.1996 21.5505 16.1996C19.9229 16.6463 19.5379 18.2144 19.5379 18.2144C19.4584 18.4781 19.4223 18.7483 19.4117 19.0029V19.3494C19.4333 19.8848 19.5455 20.2846 19.5455 20.2846C20.0891 22.844 22.7622 27.0495 23.3367 27.9329C23.3775 27.9758 23.4101 27.9603 23.4101 27.9603C23.4721 27.9422 23.4673 27.879 23.4673 27.879L23.4684 27.8793C24.3533 18.4891 22.5398 16 22.5398 16ZM25.4636 16C25.4636 16 23.6421 18.4904 24.5276 27.8861H24.5288C24.5357 27.9457 24.5755 27.9582 24.5755 27.9582C24.6348 27.9825 24.6652 27.9221 24.6652 27.9221L24.6655 27.9227C25.2547 27.0167 27.9126 22.8341 28.4538 20.2845C28.4538 20.2845 28.7473 19.0505 28.464 18.2143C28.464 18.2143 28.0616 16.6219 26.432 16.2011C26.432 16.2011 25.9623 16.0746 25.4636 16ZM17.0621 18.819C17.0621 18.819 15.5113 20.3817 15.4342 22.0384H15.4348V22.2894C15.436 22.3083 15.4369 22.3275 15.438 22.3467C15.5048 23.6826 16.4514 24.4733 16.4514 24.4733C17.9765 26.0514 21.6695 28.0439 22.5276 28.496C22.5396 28.5007 22.584 28.5161 22.61 28.4812C22.61 28.4812 22.6236 28.4703 22.6297 28.4507V28.409C22.6291 28.4067 22.6279 28.4043 22.6268 28.4017C20.2768 22.9511 17.0621 18.819 17.0621 18.819ZM30.9375 18.819C30.9375 18.819 27.7322 22.9382 25.3832 28.3777L25.3841 28.3774C25.3841 28.3774 25.3564 28.4404 25.4012 28.4812C25.4012 28.4812 25.4146 28.4919 25.4331 28.4963H25.4656C25.4715 28.4945 25.4777 28.4921 25.4839 28.4876C26.3653 28.0232 30.0297 26.0444 31.5476 24.4735C31.5476 24.4735 32.5089 23.6539 32.5593 22.338C32.6703 20.5104 30.9375 18.819 30.9375 18.819ZM33.8224 24.2302C33.8224 24.2302 28.5968 27.2076 25.895 29.1425L25.8959 29.1434C25.8959 29.1434 25.8468 29.1775 25.864 29.2386C25.864 29.2386 25.8896 29.2879 25.9269 29.2879C26.8947 29.2897 30.5568 29.2943 30.6486 29.2762C30.6486 29.2762 31.1221 29.2561 31.7072 29.0174C31.7072 29.0174 33.0098 28.5777 33.6864 27.0076C33.6864 27.0076 33.9955 26.3511 34 25.4287V25.3896C33.9978 25.0339 33.9505 24.6401 33.8224 24.2302ZM14.1757 24.2441C13.7002 25.8068 14.3403 27.066 14.3413 27.068C15.0084 28.5644 16.2816 29.0178 16.2816 29.0178C16.8695 29.2742 17.4575 29.2919 17.4575 29.2919C17.5493 29.3097 21.1138 29.2937 22.0689 29.2889C22.1093 29.2886 22.1316 29.2455 22.1316 29.2455C22.1344 29.2407 22.1368 29.2359 22.138 29.2316V29.1925C22.13 29.1663 22.1089 29.1478 22.1089 29.1478L22.1096 29.1475C19.409 27.2132 14.1757 24.2441 14.1757 24.2441ZM21.9598 29.7693L15.8125 29.9982C16.4792 31.2599 17.6019 32.2405 18.7714 31.9393C19.5785 31.7251 21.407 30.371 22.0106 29.9135L22.0086 29.9117C22.0555 29.8669 22.0387 29.831 22.0387 29.831C22.0233 29.7724 21.9598 29.7725 21.9598 29.7725L21.9598 29.7693ZM26.0313 29.7741L26.0307 29.7765C26.0307 29.7765 25.9767 29.7837 25.9616 29.8267C25.9616 29.8267 25.9485 29.8853 25.9849 29.9144L25.9842 29.915C26.5728 30.3631 28.3569 31.6874 29.2164 31.9446C29.2164 31.9446 29.3466 31.9916 29.5649 32H29.696C30.2719 31.9785 31.2751 31.6645 32.1867 30.0016L26.0313 29.7741Z" fill="#7E7E7E"/>
</svg>
