<svg width="48" height="48" viewBox="0 0 48 48" fill="none" xmlns="http://www.w3.org/2000/svg">
<path d="M28.3984 15L24.0439 29.0592L24.0219 29.0805L23.9782 29.0592L19.6237 15L14 33H15.0503C15.0503 33 15.7505 29.8686 16.9103 27.9941C17.5448 26.9716 18.5076 26.1409 19.7987 26.1622C20.7178 26.1835 21.5055 26.6734 22.4902 28.0154C22.709 28.3136 22.9716 28.8036 23.2341 29.2722C23.6499 30.0604 24 30.8699 24 30.8699C24 30.8699 24.9191 28.8249 25.5098 28.0154C26.4946 26.6734 27.2823 26.1835 28.2013 26.1622C29.4924 26.1409 30.477 26.9716 31.0897 27.9941C32.2495 29.8686 32.9497 33 32.9497 33H34L28.3984 15Z" fill="#7E7E7E"/>
</svg>
