<svg width="48" height="48" viewBox="0 0 48 48" fill="none" xmlns="http://www.w3.org/2000/svg">
<path d="M33.5822 17.9997H31.037C30.9281 17.9997 30.8398 18.0864 30.8398 18.1932V29.8065C30.8398 29.9123 30.9281 29.999 31.037 29.999H33.5822C33.6902 29.999 33.7797 29.9123 33.7797 29.8065V18.1932C33.7797 18.0864 33.6902 17.9997 33.5822 17.9997Z" fill="#7E7E7E"/>
<path d="M24.8914 17.9997H15.1966C15.0876 17.9997 15 18.0864 15 18.1932V29.8065C15 29.9123 15.0876 29.999 15.1966 29.999H17.7424C17.8507 29.999 17.9405 29.9123 17.9405 29.8065V20.6917C17.9405 20.5865 18.0281 20.4992 18.1371 20.4992H23.6209C25.163 20.4992 25.6007 21.6803 25.6007 22.4423V29.8065C25.6007 29.9123 25.6893 29.999 25.7982 29.999H28.3425C28.4508 29.999 28.5397 29.9123 28.5397 29.8065V21.568C28.5397 20.8884 28.4579 19.9112 27.5812 19.0511C26.6639 18.1532 25.827 17.9997 24.8914 17.9997Z" fill="#7E7E7E"/>
<path d="M23.1094 22.6256H20.4367C20.3278 22.6256 20.2383 22.7123 20.2383 22.8185V29.8077C20.2383 29.9133 20.3278 30 20.4367 30H23.1094C23.2175 30 23.306 29.9133 23.306 29.8077V22.8185C23.306 22.7123 23.2175 22.6256 23.1094 22.6256Z" fill="#7E7E7E"/>
</svg>
