<svg width="48" height="48" viewBox="0 0 48 48" fill="none" xmlns="http://www.w3.org/2000/svg">
<path d="M17.0148 18.6064H25.7264V20.0022H18.6554V33.3151H17.0137V18.6064H17.0148Z" fill="#7E7E7E"/>
<path d="M23.9275 24.5603C24.7044 24.5358 25.4868 24.5636 26.2581 24.4857C30.5644 24.0483 31.9268 19.6185 30.225 16.6311C29.1464 14.7379 27.3144 14.0623 25.2408 14.0233C24.7544 14.0144 24.2669 14.0088 23.7794 14.0055H23.696C22.5395 13.9966 21.3842 13.9999 20.2278 14.0055H17V15.5526H17.7791C17.8147 15.5526 17.8504 15.5548 17.886 15.5548C20.5183 15.5637 23.1517 15.5292 25.7829 15.5871C27.8208 15.6316 29.1576 17.0274 29.2922 19.1054C29.4191 21.0498 28.2916 22.6047 26.3661 22.8796C25.5158 23.001 24.6487 23.0076 23.7805 23.0132H21.6224V23.5185C21.6179 23.8669 21.6135 24.2008 21.6224 24.5303V24.5703H21.6235C21.6268 24.6839 21.6302 24.7963 21.638 24.9087C21.6536 25.1458 21.7548 25.4229 21.9118 25.5976C24.1334 28.0864 26.3683 30.5617 28.6077 33.0338C28.738 33.1773 28.9227 33.3521 29.093 33.3643C29.6595 33.4055 30.2305 33.3799 30.8004 33.3799C30.8438 33.312 30.8872 33.243 30.9306 33.1751C28.3618 30.3647 25.7528 27.5109 23.0727 24.5792C23.46 24.5514 23.7115 24.5714 23.9241 24.5648L23.9275 24.5603Z" fill="#7E7E7E"/>
</svg>
